<svg id="Ebene_1" data-name="Ebene 1" xmlns="http://www.w3.org/2000/svg" xmlns:xlink="http://www.w3.org/1999/xlink" viewBox="0 0 909.44 296.22"><defs><style>.cls-1{fill:#222fa8;}.cls-2{fill:url(#Unbenannter_Verlauf_53);}.cls-3{fill:#fff;}.cls-4{fill:url(#Unbenannter_Verlauf_53-2);}</style><linearGradient id="Unbenannter_Verlauf_53" x1="139.76" y1="324.23" x2="139.76" y2="36.94" gradientTransform="translate(6.46 -38.9) rotate(0.81)" gradientUnits="userSpaceOnUse"><stop offset="0.22" stop-color="#222fa8"/><stop offset="0.37" stop-color="#2e3cbf"/><stop offset="0.66" stop-color="#4b5cf6"/><stop offset="0.67" stop-color="#4b5cf6"/><stop offset="0.97" stop-color="#6675ff"/></linearGradient><linearGradient id="Unbenannter_Verlauf_53-2" x1="204.09" y1="212.06" x2="204.09" y2="45.88" xlink:href="#Unbenannter_Verlauf_53"/></defs><title>hanslick-online-logo</title><g id="logo_font_blau" data-name="logo+font blau"><path class="cls-1" d="M318.54,99.15h3v39.6c4.46-10.16,13.27-15.6,25.05-15.6,16.59,0,27.79,10,27.79,29.32v30.62h-3V152.47c0-16.91-9.84-26.49-24.93-26.49s-24.94,9.7-24.94,26.49v30.62h-3Z"/><path class="cls-1" d="M383.27,153.89c0-17.74,12.58-30.74,30.43-30.74S444,136,444,154.12v29h-2.86V166.54c-4.69,11.58-14.76,18.08-27.57,18.08C395.85,184.62,383.27,171.62,383.27,153.89Zm57.77,0c0-16-11-27.91-27.34-27.91s-27.34,11.94-27.34,27.91,11,27.9,27.34,27.9S441,169.85,441,153.89Z"/><path class="cls-1" d="M455.22,152.47c0-19.27,11.2-29.32,27.9-29.32S511,133.2,511,152.47v30.62h-3V152.47c0-16.91-9.84-26.49-24.94-26.49s-24.93,9.58-24.93,26.49v30.62h-3Z"/><path class="cls-1" d="M520.52,167.25h3c.34,8.51,7.89,14.65,19.67,14.65,12,0,19.33-6.38,19.33-15,0-9.69-9.26-10.64-19.1-11.82C533,153.89,522,152.59,522,140.64c0-10.64,8.58-17.49,20.93-17.49,12.81,0,20.71,7.21,20.93,16.78h-3c-.23-8.39-7-14-18-14s-17.84,5.68-17.84,14.31c0,9.93,9.26,10.76,19.1,11.94,10.41,1.18,21.39,2.48,21.39,14.31,0,10.52-8.81,18.08-22.53,18.08S520.87,177.18,520.52,167.25Z"/><path class="cls-1" d="M577.37,99.15h3v83.94h-3Z"/><path class="cls-1" d="M594.41,106.83a3.21,3.21,0,1,1,3.2,3.31A3.18,3.18,0,0,1,594.41,106.83Zm1.72,17.85h3v58.41h-3Z"/><path class="cls-1" d="M610.31,153.89c0-17.74,12.58-30.74,30.42-30.74,14.18,0,25,8.15,28.82,20.45h-3.08C662.81,133,653.31,126,640.73,126c-16.36,0-27.34,11.94-27.34,27.91s11,27.9,27.34,27.9c12.58,0,22.08-7,25.74-17.62h3.08c-3.77,12.3-14.64,20.45-28.82,20.45C622.89,184.62,610.31,171.62,610.31,153.89Z"/><path class="cls-1" d="M681.22,99.15h3v52.61L721,124.68h4.69l-38.09,28.14L727,183.09h-4.8l-38-29.2v29.2h-3Z"/><path class="cls-1" d="M732.17,169.88V149.57a12.92,12.92,0,0,1,12.7-13v46.55C737.92,183.09,732.17,177.15,732.17,169.88Zm17.33-33.34a12.92,12.92,0,0,1,12.7,13v20.31c0,7.27-5.75,13.21-12.7,13.21Z"/><path class="cls-1" d="M768.2,136.54h12.7v46.55H768.2Zm17.33,0a12.91,12.91,0,0,1,12.69,13v33.52H785.53Z"/><path class="cls-1" d="M804.66,169.88V116.59h12.69v66.5C810.4,183.09,804.66,177.15,804.66,169.88Z"/><path class="cls-1" d="M823.7,123.68a7.19,7.19,0,0,1,6.95-7.09,7.18,7.18,0,0,1,0,14.36A7.23,7.23,0,0,1,823.7,123.68Zm.51,12.86h12.7v46.55h-12.7Z"/><path class="cls-1" d="M843.77,136.54h12.7v46.55h-12.7Zm17.33,0a12.92,12.92,0,0,1,12.7,13v33.52H861.1Z"/><path class="cls-1" d="M879.37,169.88V149.57a12.92,12.92,0,0,1,12.7-13v46.55C885.12,183.09,879.37,177.15,879.37,169.88Zm17.33-33.34a12.94,12.94,0,0,1,12.7,13.12v3.9a12.86,12.86,0,0,1-12.7,13Zm0,33.51h12.7a12.87,12.87,0,0,1-12.7,13Z"/><circle class="cls-2" cx="143.65" cy="143.65" r="143.65"/><path class="cls-3" d="M74,176.33c-3.28,3.45-5.83,6.36-7.48,8.3-2,2.62-4.63,6.08-7.58,10.19-1.75,2.43-3.63,5.06-5.85,8.37-8.5,12.73-13.25,22.75-14.6,24.71a12.14,12.14,0,0,0-1.11,2c-.21.48-.26.9-1.78,4.54a10.31,10.31,0,0,0-1,4.8,12.11,12.11,0,0,0,1.62,5.93,90.56,90.56,0,0,0-11.11,11.72c-1.35,1.72-3.42,4.5-6.8,8.44-1.81,2.09-3.34,3.77-4.37,4.86a41.31,41.31,0,0,1,.33-9.14A45.29,45.29,0,0,1,16,254.24a79.92,79.92,0,0,1,5.46-13.19A232.11,232.11,0,0,1,34.9,219q3-4.64,6.22-9.31C50.55,195.84,60.2,183,69.89,171.2"/><path class="cls-3" d="M72,170a8,8,0,0,1,.21-1.27c.86-3.36,2.21-6.68,3.35-10,2.3-6.63,6.38-18.4,8.95-24.93a91.39,91.39,0,0,1-.59,9.83c6.06-8.89,12.57-18.17,22.33-22.89L101.8,129a40.1,40.1,0,0,1,18.76-10.54c-3.43,3.51-7.1,6.81-10.31,10.53-.6.7-1.4,2.94,2.29,1,13.09-6.77,27.69-11.94,42.45-11.15a104.92,104.92,0,0,1-6.53,38.94c-2.2,6.06-5.12,12.13-10.16,16.23-4.74,3.87-10.94,5.6-17.06,6.27a64.4,64.4,0,0,1-26-2.68c-4.76-1.48-9.54-3.48-14.52-3.24-2,.1-4.08.56-6,0C72.48,173.67,71.82,171.88,72,170Z"/><path class="cls-3" d="M138.81,173.89a1.33,1.33,0,0,0,.49.37,5.78,5.78,0,0,0,3.24.34c14.92-1.75,26.3-13.74,36.06-25.17l-14.1,17a77.79,77.79,0,0,0,24.26-17l-10.59,11.75c13.6-3,22.89-15.52,29-28.05s10.41-26.3,19.86-36.52a62.54,62.54,0,0,0-17.06,13,200.17,200.17,0,0,1,28-39.24,72.43,72.43,0,0,0-16.07,9.44,212,212,0,0,1,36.48-34.41l-23.79,14Q257.37,36.89,278.94,13c-10.33,1.69-21,1.25-31.09,4l18.66-5.95a146.31,146.31,0,0,0-49,14.4l21-12.12c-25.19,6.76-49.32,23-58.61,47.35a82.85,82.85,0,0,1,11.51-28.31c-9.06,8.4-15.22,19.63-18.73,31.47s-4.47,24.33-4.17,36.68c.17,6.82.62,14.06-2.69,20-.42-9.52-.58-19.17-1-28.69a53.25,53.25,0,0,0-3.05,23.28,107.68,107.68,0,0,1,.14-31.61c-6.59,9.75-5.83,22.46-6.5,34.21a123.81,123.81,0,0,1-6.24,32.39,122.43,122.43,0,0,1-6.29,15.33q-1.62,3.31-3.45,6.53C139,172.72,138.41,173.36,138.81,173.89Z"/><path class="cls-4" d="M140.87,175.07a4.26,4.26,0,0,1-1.77-.5c-.51-.3-1.16-.89-.8-1.48.49-.81,1-1.63,1.43-2.46a112.07,112.07,0,0,0,5.12-10.15c1.54-3.46,2.92-7,4.11-10.59s2.23-7.25,3.08-10.95,1.51-7.43,2-11.19q.39-3,.62-6.1c1-13.51,0-28.17,7.61-39.36l-1.1,25.56a34.16,34.16,0,0,1,3.57-15.94L166,120.22c3.51-12.78,1.79-26.34,2.95-39.53,1.6-18.12,9.07-36,22.43-48.38a111.07,111.07,0,0,0-11.13,26.63c5-12.19,13.87-22.58,24.54-30.3s23-12.87,35.78-16.18L222.54,22.85A135.79,135.79,0,0,1,268.91,10.7l-14.45,4.52,24.73-2.42q-20.55,23.49-42.95,45.27l23.91-13.79A237.21,237.21,0,0,0,223.32,78.4,143.84,143.84,0,0,1,239.48,69a231.82,231.82,0,0,0-28.6,39.37,95.36,95.36,0,0,1,18-13.67C218.65,105,214,119.48,207.73,132.6s-16.06,26.32-30.34,29.13l6-6.8c-5.49,4.66-13.22,10.6-19.88,12.33l6.37-7.75a48.39,48.39,0,0,1-26.73,15.39A8.36,8.36,0,0,1,140.87,175.07Zm-1.48-1.49c.26.63,1.14.59,1.76.61a18.77,18.77,0,0,0,3.18-.14,26.86,26.86,0,0,0,6.22-1.67l.48-.19c11.14-4.55,19.55-13.84,27.49-22.88a204,204,0,0,1-13,16.42c9-3,15.95-10.61,23.39-16.21l-9.94,11.24c13-3.28,21.87-15.3,27.73-27.38s10-25.29,18.8-35.44a61.87,61.87,0,0,0-16.4,12.87,193.87,193.87,0,0,1,27.46-39.26,60.32,60.32,0,0,0-16.09,9.63A191.82,191.82,0,0,1,256.08,47l-23.4,14q23.46-23.29,45.77-47.69c-11.36.93-22.5,2.08-33.2,4.73A170.64,170.64,0,0,1,264,11.61a158.92,158.92,0,0,0-47.77,14.66,169.16,169.16,0,0,1,20-11.72,83.26,83.26,0,0,0-56.75,46.9c.89-9.83,5.83-18.78,10.66-27.39-16.33,16.13-21.85,40.5-21.39,63.45.17,8.14.86,16.85-3.25,23.89-.44-9.31-.82-19.13-1-28.46-2.64,7.2-3.28,15.47-2.78,23a96.18,96.18,0,0,1-.39-31.17c-6,10.59-5.16,23.52-6,35.66q-.21,3.1-.59,6.2c-.25,2.07-.56,4.14-.92,6.19s-.78,4.11-1.25,6.14-1,4.06-1.56,6.07-1.2,4-1.88,6-1.4,3.94-2.18,5.87-1.61,3.86-2.48,5.75-1.81,3.77-2.79,5.61c-.48.93-1,1.84-1.5,2.75a4.08,4.08,0,0,0-.87,2.28A1.07,1.07,0,0,0,139.39,173.58Z"/><path class="cls-1" d="M73.18,172.51l-2-2c24.76-24.38,53-37,81.78-36.36l-.06,2.87h-.59C124.55,136.57,97.2,148.85,73.18,172.51Z"/><path class="cls-1" d="M249.35,273.86a1.31,1.31,0,0,1-.59-.21l-1.11-.61c-.28-.16-.5-.28-.67-.39l-2-1.07c-1.25-.65-2.56-1.3-3.89-1.95-5.89-2.84-12.18-5.5-18.67-7.89l.39-1.08c6.54,2.4,12.85,5.07,18.78,7.94,1.34.65,2.66,1.31,3.92,2s2.64,1.37,3.88,2.09c.24.14.73.42.45.92A.5.5,0,0,1,249.35,273.86Zm-2.29-1.17h0l.05,0Z"/><path class="cls-1" d="M15.56,296.22a8.31,8.31,0,0,1-4.17-1.05c-4.5-2.64-3.32-9.1-3.27-9.37l1.69.32c0,.05-1,5.54,2.46,7.57C21.34,299,49.18,277.63,65,264.42c.67-.56,1.36-1.07,2-1.56l.45-.32,1,1.39-.46.33c-.65.47-1.32,1-1.94,1.48C41.71,286.13,24.77,296.35,15.56,296.22Z"/><path class="cls-3" d="M66.9,265.1l-1.55-1c21-15.44,48-22.65,79.83-21.27,31.25,1.35,61.45,11.33,80.35,18.85l-1.15.79C194.47,250.57,119.09,226.79,66.9,265.1Z"/><path class="cls-1" d="M138.87,173.79l-2.69,1.77c.16-.25,16.84-23.47,18.81-56.7l.47,0C153.48,152.27,139,173.54,138.87,173.79Z"/><polygon class="cls-1" points="69.89 171.2 74.2 165.62 72.18 169.76 74.55 168.61 73.21 171.78 81.61 167.02 74.49 172.84 85.51 167.92 76.83 173.72 83.08 173.81 74.03 176.33 69.89 171.2"/><path class="cls-1" d="M42.91,208.46l-3.25,7.25,2.14-2.54-4.09,7.64,2.46-3.06-1.51,4.11,1.7-1.74c-.18.64-.52,1.77-1,3.15-2.09,5.53-4.51,8.32-5.11,12.27A19.48,19.48,0,0,0,34,239c.07,1.13.66,3.9.8,4.55-3.43,4.79-7.26,7.77-10.71,12.55s-7.07,9.82-10.29,14.4a57.51,57.51,0,0,1,6.78-25.62c1.58-3,3.87-7.41,4.17-8,0,0,1.06-1.95,2.16-3.87C29.29,228.94,35,220,42.91,208.46Z"/><path class="cls-1" d="M249.32,272.89c.05-.07.17-.15.25-.1l32.22,17.44-33.06-16.6Z"/><path class="cls-1" d="M12,294.89l.76-.22-.76.22a11.42,11.42,0,0,1-2.21-2c-3.86-4.46-.67-11.86.7-15.48A34,34,0,0,1,14,270.62a71.34,71.34,0,0,0-2.8,7.69,29.73,29.73,0,0,0-1.37,7.46c-.25,3-.16,4.68.16,5.62A10.84,10.84,0,0,0,12,294.89Z"/></g></svg>